<svg xmlns="http://www.w3.org/2000/svg" viewBox="0 0 178 121"><path fill="#2f2f2f" d="M0 0h178v121H0z"/><circle cx="4" cy="4" r="4" fill="#e3544d" transform="translate(11 9)"/><circle cx="4" cy="4" r="4" fill="#f1a139" transform="translate(24 9)"/><circle cx="4" cy="4" r="4" fill="#50af4a" transform="translate(37 9)"/><path fill="#26aeeb" d="M25.1 38.6c-4 0-7.4 3.3-7.4 7.4 0 4 3.4 7.4 7.4 7.4s7.4-3.4 7.4-7.4-3.3-7.4-7.4-7.4m3.5 5.7L25.1 49a.8.8 0 0 1-1.1.1L21.7 47a.8.8 0 0 1 1-1.1l1.7 1.6 3-4.1a.8.8 0 0 1 1.2.9m-3.5 15.3c-4 0-7.4 3.3-7.4 7.4 0 4 3.4 7.4 7.4 7.4s7.4-3.4 7.4-7.4-3.3-7.4-7.4-7.4m3.5 5.7L25.1 70a.8.8 0 0 1-1.1.1L21.7 68a.8.8 0 0 1 1-1.1l1.7 1.6 3-4.1a.8.8 0 0 1 1.2.9m-3.5 15.3c-4 0-7.4 3.3-7.4 7.4 0 4 3.4 7.4 7.4 7.4s7.4-3.4 7.4-7.4-3.3-7.4-7.4-7.4m3.5 5.7L25.1 91a.8.8 0 0 1-1.1.1L21.7 89a.8.8 0 0 1 1-1.1l1.7 1.6 3-4.1a.8.8 0 0 1 1.2.9"/><path fill="#696868" d="M43.3 41.9h112.1a3 3 0 0 1 3 3v2a3 3 0 0 1-3 3H43.2a3 3 0 0 1-3-3v-2a3 3 0 0 1 3-3Zm56 24v2a3 3 0 0 1-3 3h-53a3 3 0 0 1-3-3v-2a3 3 0 0 1 3-3h53a3 3 0 0 1 3 3m28 21v2a3 3 0 0 1-3 3h-81a3 3 0 0 1-3-3v-2a3 3 0 0 1 3-3h81a3 3 0 0 1 3 3"/></svg>