<svg xmlns="http://www.w3.org/2000/svg" viewBox="0 0 593.8 95.2"><path fill="#fff" d="M134.5 76.9h-.5a3.4 3.4 0 0 1-3.4-3.4V31.4H114a3.4 3.4 0 0 1-3.4-3.4c0-1.9 1.5-3.4 3.4-3.4h40.3c1.9 0 3.4 1.5 3.4 3.4s-1.5 3.4-3.4 3.4h-16.5v42.2c0 1.8-1.4 3.3-3.3 3.3m55.7-33.6V73c0 1.6-1.3 2.9-2.9 2.9H186a2.9 2.9 0 0 1-2.9-2.9c-4.1 2.7-8.2 4.1-12.5 4.1s-9.6-1.8-12.8-5.3-4.8-8.2-4.8-14c.1-5.8 1.7-10.3 4.8-13.8 3.2-3.5 7.7-5.2 13.3-5.2s10.2.5 16.4 1.4c1.5.2 2.7 1.5 2.7 3.1M159.9 58c0 7.8 4.6 13.1 11.7 13.1s7.7-1.4 11.5-4.2V45.6c-3.8-.5-7.5-.8-11.1-.8-8 0-12.1 5.2-12.1 13.2M199 71a2.9 2.9 0 0 1 3.8-2c4.3 1.5 8.2 2.2 11.9 2.2s8.4-1.8 8.4-5-1.5-3.4-4.6-4.3l-6.9-1.6c-8.3-1.6-12.1-4.5-12.1-10.2s5.5-11.2 14.8-11.2 7.8.5 11.5 1.6a3 3 0 0 1 2 3.7 3 3 0 0 1-3.6 2 38 38 0 0 0-10.2-1.6c-5 0-7.5 1.7-7.5 5 .3 3.3 3 3.9 8.7 5.2l.8.2a33 33 0 0 1 10.5 3.6c2.2 1.5 3.2 3.8 3.2 7 0 7.5-6 11.5-15.3 11.5s-9.1-.8-13.6-2.4a3 3 0 0 1-1.9-3.5V71Zm50.5-15.5L262.6 42c.6-.6 1.4-.9 2.2-.9a3 3 0 0 1 2.2 5.3l-10 10.3 12.5 15c1.8 2.1.3 5.3-2.5 5.3-.9 0-1.8-.4-2.4-1.1l-12-13.8h-7.2v11.4c0 1.9-1.6 3.5-3.5 3.5a3.5 3.5 0 0 1-3.5-3.5V25.8c0-1.9 1.6-3.5 3.5-3.5s3.5 1.6 3.5 3.5v29.7zm58.9 20.4c-2 0-3.8-1.1-4.7-3l-15.6-32.1-2 32.7a3.6 3.6 0 0 1-3.6 3.4 3.6 3.6 0 0 1-3.6-3.8l2.5-44.4a4.5 4.5 0 0 1 4.4-4.2c1.7 0 3.3 1 4 2.6L308.3 67 327 27.2a4.4 4.4 0 0 1 8.4 1.6l2.5 44.4a3.6 3.6 0 0 1-7.2.4l-2-32.7L313 73a5 5 0 0 1-4.6 2.9m119.2-22.7v19.3c0 1.9-1.6 3.5-3.5 3.5a3.5 3.5 0 0 1-3.5-3.5V55.1c0-6.1-3.5-9.8-9.3-9.8s-7.5.3-11.7.9v26.3c0 1.9-1.6 3.5-3.5 3.5a3.5 3.5 0 0 1-3.5-3.5V43.2c0-1.5 1.1-2.9 2.6-3.1 5.3-.9 11.1-1.3 17.5-1.3 9.2 0 14.9 5.5 14.9 14.4m85.5-13.5c.8 0 1.8.3 3.3.5s2.7 1.5 2.7 3.1v31.8c0 12.1-7.3 20-20 20s-6.8-.5-10.5-1.6a3 3 0 0 1-2.1-3.6 3 3 0 0 1 3.7-2.4c3.7.8 6.6 1.3 8.7 1.3 8.1 0 13.1-5 13.2-13.4-3.6.5-7.8.8-12.5.8s-9.5-1.7-12.8-5.2c-3.2-3.5-4.8-7.9-4.8-13.4s1.6-10.3 4.8-13.8 7.7-5.2 13.3-5.2c5.2.2 10.5.8 13 1.1M488.8 58c0 3.5 1.1 6.5 3.2 8.8 2.2 2.3 5 3.5 8.5 3.5s8.2-.3 11.5-.9V45.6c-3.8-.5-7.5-.8-11.1-.8-7.9 0-12.1 5.2-12.1 13.2m70.3-14.7c3.2 3 4.8 6.9 4.9 11.9v2.6c0 1.6-1.4 2.8-3 2.8h-25.6c1.2 6.2 5.7 10.2 12.7 10.2s5.7-.5 10-1.4c1.6-.3 3.2.7 3.6 2.4a3 3 0 0 1-2.1 3.5 45 45 0 0 1-11.7 1.8c-6.3 0-11.2-1.8-14.8-5.3-3.5-3.6-5.2-8.2-5.2-13.9s1.8-10.3 5.3-13.8 8-5.3 13.5-5.3c5.1 0 9.3 1.5 12.5 4.5Zm-1.4 11.9c0-6.5-4.5-10.8-10.9-10.8s-10.8 4.2-11.6 10.8zm32.7-9.2c-4.1 0-7.7.3-10.6.6v25.9c0 1.9-1.6 3.5-3.5 3.5a3.5 3.5 0 0 1-3.5-3.5v-29a3 3 0 0 1 2.5-3 120 120 0 0 1 15-1.6c2 0 3.6 1.5 3.6 3.5-.1 2-1.6 3.5-3.5 3.6m-206.5-2.7V73c0 1.6-1.3 2.9-2.9 2.9h-1.2a2.9 2.9 0 0 1-2.9-2.9c-4.1 2.7-8.2 4.1-12.5 4.1s-9.6-1.8-12.8-5.3-4.8-8.2-4.8-14c.1-5.8 1.7-10.3 4.8-13.8 3.2-3.5 7.7-5.2 13.3-5.2s10.2.5 16.4 1.4c1.4.2 2.6 1.5 2.6 3.1M353.6 58c0 7.8 4.6 13.1 11.7 13.1s7.7-1.4 11.5-4.2V45.6c-3.8-.5-7.5-.8-11.1-.8-8 0-12.1 5.2-12.1 13.2m119.7-14.7V73c0 1.6-1.3 2.9-2.9 2.9h-1.2a2.9 2.9 0 0 1-2.9-2.9c-4.1 2.7-8.2 4.1-12.5 4.1s-9.6-1.8-12.8-5.3a20 20 0 0 1-4.8-14c.1-5.8 1.7-10.3 4.8-13.8 3.2-3.5 7.7-5.2 13.3-5.2s10.2.5 16.4 1.4a3 3 0 0 1 2.6 3.1M443 58c0 7.8 4.6 13.1 11.7 13.1s7.7-1.4 11.5-4.2V45.6c-3.8-.5-7.5-.8-11.1-.8-7.9 0-12.1 5.2-12.1 13.2M81.3 24.9a3.5 3.5 0 0 0-4.8-1.1 3.5 3.5 0 0 0-1.1 4.8 37 37 0 1 1-22-16.1c1.9.5 3.8-.6 4.3-2.5s-.6-3.8-2.5-4.3a44 44 0 1 0 26.1 19.2"/><path fill="#26adeb" d="M78.6 3.1A4 4 0 0 0 76.9.6Q75.85 0 74.8 0c-1.4 0-2.6.7-3.4 1.8L44 46.2 32.4 28.6c-.7-1.1-2-1.8-3.3-1.8s-1.5.2-2.2.6c-.9.6-1.5 1.5-1.7 2.5s0 2.1.5 3l14.9 22.8c.7 1.1 2 1.8 3.3 1.8s2.6-.7 3.4-1.8L78.1 6.1c.6-.9.8-1.9.5-3"/></svg>